/* XPM */
static char *happy_0_0[] = {
/* columns rows colors chars-per-pixel */
"30 20 2 1 ",
"  c None",
". c white",
/* pixels */
"..............................",
"..............................",
"..............................",
"..............................",
"...........       ............",
".........  .......  ..........",
"........ ........... .........",
"....... .... ... .... ........",
"...... ..... ... ..... .......",
"...... ..... ... ..... .......",
"...... ............... .......",
"...... ............... .......",
"....... ............. ........",
"........ ........... .........",
".........  .......  ..........",
"...........       ............",
"..............................",
"..............................",
"..............................",
".............................."
};
